<mxfile host="app.diagrams.net" modified="2022-12-31T22:35:36.366Z" agent="5.0 (Windows NT 10.0; Win64; x64) AppleWebKit/537.36 (KHTML, like Gecko) Chrome/108.0.0.0 Safari/537.36" etag="UHGlkR1m_E6MrmxgmW0X" version="20.7.4" type="github">
  <diagram id="R2lEEEUBdFMjLlhIrx00" name="Page-1">
    <mxGraphModel dx="1970" dy="1495" grid="1" gridSize="10" guides="1" tooltips="1" connect="1" arrows="1" fold="1" page="1" pageScale="1" pageWidth="850" pageHeight="1100" math="0" shadow="0" extFonts="Permanent Marker^https://fonts.googleapis.com/css?family=Permanent+Marker">
      <root>
        <mxCell id="0" />
        <mxCell id="1" parent="0" />
        <mxCell id="2aTZHR3uuoZx_ym8PjhI-18" value="" style="edgeStyle=orthogonalEdgeStyle;rounded=0;orthogonalLoop=1;jettySize=auto;html=1;" edge="1" parent="1" source="2aTZHR3uuoZx_ym8PjhI-1" target="2aTZHR3uuoZx_ym8PjhI-12">
          <mxGeometry relative="1" as="geometry" />
        </mxCell>
        <mxCell id="2aTZHR3uuoZx_ym8PjhI-20" value="" style="edgeStyle=orthogonalEdgeStyle;rounded=0;orthogonalLoop=1;jettySize=auto;html=1;" edge="1" parent="1" source="2aTZHR3uuoZx_ym8PjhI-1" target="2aTZHR3uuoZx_ym8PjhI-12">
          <mxGeometry relative="1" as="geometry" />
        </mxCell>
        <mxCell id="2aTZHR3uuoZx_ym8PjhI-21" style="edgeStyle=orthogonalEdgeStyle;rounded=0;orthogonalLoop=1;jettySize=auto;html=1;" edge="1" parent="1" source="2aTZHR3uuoZx_ym8PjhI-1" target="2aTZHR3uuoZx_ym8PjhI-11">
          <mxGeometry relative="1" as="geometry" />
        </mxCell>
        <mxCell id="2aTZHR3uuoZx_ym8PjhI-22" style="edgeStyle=orthogonalEdgeStyle;rounded=0;orthogonalLoop=1;jettySize=auto;html=1;" edge="1" parent="1" source="2aTZHR3uuoZx_ym8PjhI-1" target="2aTZHR3uuoZx_ym8PjhI-10">
          <mxGeometry relative="1" as="geometry" />
        </mxCell>
        <mxCell id="2aTZHR3uuoZx_ym8PjhI-23" style="edgeStyle=orthogonalEdgeStyle;rounded=0;orthogonalLoop=1;jettySize=auto;html=1;entryX=1;entryY=0.5;entryDx=0;entryDy=0;" edge="1" parent="1" source="2aTZHR3uuoZx_ym8PjhI-1" target="2aTZHR3uuoZx_ym8PjhI-9">
          <mxGeometry relative="1" as="geometry" />
        </mxCell>
        <mxCell id="2aTZHR3uuoZx_ym8PjhI-24" style="edgeStyle=orthogonalEdgeStyle;rounded=0;orthogonalLoop=1;jettySize=auto;html=1;entryX=1;entryY=0.5;entryDx=0;entryDy=0;" edge="1" parent="1" source="2aTZHR3uuoZx_ym8PjhI-1" target="2aTZHR3uuoZx_ym8PjhI-14">
          <mxGeometry relative="1" as="geometry" />
        </mxCell>
        <mxCell id="2aTZHR3uuoZx_ym8PjhI-25" style="edgeStyle=orthogonalEdgeStyle;rounded=0;orthogonalLoop=1;jettySize=auto;html=1;entryX=1;entryY=0.5;entryDx=0;entryDy=0;" edge="1" parent="1" source="2aTZHR3uuoZx_ym8PjhI-1" target="2aTZHR3uuoZx_ym8PjhI-15">
          <mxGeometry relative="1" as="geometry" />
        </mxCell>
        <mxCell id="2aTZHR3uuoZx_ym8PjhI-33" style="edgeStyle=orthogonalEdgeStyle;rounded=0;orthogonalLoop=1;jettySize=auto;html=1;entryX=1;entryY=0.5;entryDx=0;entryDy=0;" edge="1" parent="1" source="2aTZHR3uuoZx_ym8PjhI-1" target="2aTZHR3uuoZx_ym8PjhI-31">
          <mxGeometry relative="1" as="geometry" />
        </mxCell>
        <mxCell id="2aTZHR3uuoZx_ym8PjhI-34" style="edgeStyle=orthogonalEdgeStyle;rounded=0;orthogonalLoop=1;jettySize=auto;html=1;entryX=1;entryY=0.5;entryDx=0;entryDy=0;" edge="1" parent="1" source="2aTZHR3uuoZx_ym8PjhI-1" target="2aTZHR3uuoZx_ym8PjhI-28">
          <mxGeometry relative="1" as="geometry" />
        </mxCell>
        <mxCell id="2aTZHR3uuoZx_ym8PjhI-35" style="edgeStyle=orthogonalEdgeStyle;rounded=0;orthogonalLoop=1;jettySize=auto;html=1;entryX=1;entryY=0.5;entryDx=0;entryDy=0;" edge="1" parent="1" source="2aTZHR3uuoZx_ym8PjhI-1" target="2aTZHR3uuoZx_ym8PjhI-30">
          <mxGeometry relative="1" as="geometry" />
        </mxCell>
        <mxCell id="2aTZHR3uuoZx_ym8PjhI-36" style="edgeStyle=orthogonalEdgeStyle;rounded=0;orthogonalLoop=1;jettySize=auto;html=1;entryX=1;entryY=0.5;entryDx=0;entryDy=0;" edge="1" parent="1" source="2aTZHR3uuoZx_ym8PjhI-1" target="2aTZHR3uuoZx_ym8PjhI-32">
          <mxGeometry relative="1" as="geometry" />
        </mxCell>
        <mxCell id="2aTZHR3uuoZx_ym8PjhI-1" value="Orden de Compra" style="rounded=0;whiteSpace=wrap;html=1;" vertex="1" parent="1">
          <mxGeometry x="150" y="109" width="120" height="60" as="geometry" />
        </mxCell>
        <mxCell id="2aTZHR3uuoZx_ym8PjhI-6" value="Proveedor" style="rounded=0;whiteSpace=wrap;html=1;" vertex="1" parent="1">
          <mxGeometry x="590" y="109" width="120" height="60" as="geometry" />
        </mxCell>
        <mxCell id="2aTZHR3uuoZx_ym8PjhI-7" value="Materia Prima" style="rounded=0;whiteSpace=wrap;html=1;" vertex="1" parent="1">
          <mxGeometry x="150" y="320" width="120" height="60" as="geometry" />
        </mxCell>
        <mxCell id="2aTZHR3uuoZx_ym8PjhI-8" value="Paneles" style="rounded=0;whiteSpace=wrap;html=1;" vertex="1" parent="1">
          <mxGeometry x="460" y="320" width="120" height="60" as="geometry" />
        </mxCell>
        <mxCell id="2aTZHR3uuoZx_ym8PjhI-9" value="Attribute" style="ellipse;whiteSpace=wrap;html=1;align=center;" vertex="1" parent="1">
          <mxGeometry x="-20" y="190" width="100" height="40" as="geometry" />
        </mxCell>
        <mxCell id="2aTZHR3uuoZx_ym8PjhI-10" value="Attribute" style="ellipse;whiteSpace=wrap;html=1;align=center;" vertex="1" parent="1">
          <mxGeometry x="-20" y="150" width="100" height="40" as="geometry" />
        </mxCell>
        <mxCell id="2aTZHR3uuoZx_ym8PjhI-11" value="Attribute" style="ellipse;whiteSpace=wrap;html=1;align=center;" vertex="1" parent="1">
          <mxGeometry x="-20" y="109" width="100" height="40" as="geometry" />
        </mxCell>
        <mxCell id="2aTZHR3uuoZx_ym8PjhI-12" value="cantidad" style="ellipse;whiteSpace=wrap;html=1;align=center;" vertex="1" parent="1">
          <mxGeometry x="-20" y="69" width="100" height="40" as="geometry" />
        </mxCell>
        <mxCell id="2aTZHR3uuoZx_ym8PjhI-13" value="Emite al" style="shape=rhombus;perimeter=rhombusPerimeter;whiteSpace=wrap;html=1;align=center;" vertex="1" parent="1">
          <mxGeometry x="360" y="109" width="120" height="60" as="geometry" />
        </mxCell>
        <mxCell id="2aTZHR3uuoZx_ym8PjhI-14" value="Attribute" style="ellipse;whiteSpace=wrap;html=1;align=center;" vertex="1" parent="1">
          <mxGeometry x="-20" y="230" width="100" height="40" as="geometry" />
        </mxCell>
        <mxCell id="2aTZHR3uuoZx_ym8PjhI-15" value="producto" style="ellipse;whiteSpace=wrap;html=1;align=center;" vertex="1" parent="1">
          <mxGeometry x="-20" y="29" width="100" height="40" as="geometry" />
        </mxCell>
        <mxCell id="2aTZHR3uuoZx_ym8PjhI-28" value="numero" style="ellipse;whiteSpace=wrap;html=1;align=center;" vertex="1" parent="1">
          <mxGeometry x="-20" y="-10" width="100" height="40" as="geometry" />
        </mxCell>
        <mxCell id="2aTZHR3uuoZx_ym8PjhI-30" value="fecha" style="ellipse;whiteSpace=wrap;html=1;align=center;" vertex="1" parent="1">
          <mxGeometry x="-20" y="-50" width="100" height="40" as="geometry" />
        </mxCell>
        <mxCell id="2aTZHR3uuoZx_ym8PjhI-31" value="Attribute" style="ellipse;whiteSpace=wrap;html=1;align=center;" vertex="1" parent="1">
          <mxGeometry x="-20" y="270" width="100" height="40" as="geometry" />
        </mxCell>
        <mxCell id="2aTZHR3uuoZx_ym8PjhI-32" value="id" style="ellipse;whiteSpace=wrap;html=1;align=center;" vertex="1" parent="1">
          <mxGeometry x="-20" y="-90" width="100" height="40" as="geometry" />
        </mxCell>
      </root>
    </mxGraphModel>
  </diagram>
</mxfile>
